TITLE ""
FILE "LR_black_phrase_E_B04.mp3" MP3
  TRACK 01 AUDIO
    TITLE "LR_black_phrase_E_B04_001"
    INDEX 01 00:00:00
  TRACK 02 AUDIO
    TITLE "LR_black_phrase_E_B04_002"
    INDEX 01 00:00:14
  TRACK 03 AUDIO
    TITLE "LR_black_phrase_E_B04_003"
    INDEX 01 00:01:37
  TRACK 04 AUDIO
    TITLE "LR_black_phrase_E_B04_004"
    INDEX 01 00:01:67
  TRACK 05 AUDIO
    TITLE "LR_black_phrase_E_B04_005"
    INDEX 01 00:04:22
  TRACK 06 AUDIO
    TITLE "LR_black_phrase_E_B04_006"
    INDEX 01 00:05:02
  TRACK 07 AUDIO
    TITLE "LR_black_phrase_E_B04_007"
    INDEX 01 00:07:34
  TRACK 08 AUDIO
    TITLE "LR_black_phrase_E_B04_008"
    INDEX 01 00:08:37
  TRACK 09 AUDIO
    TITLE "LR_black_phrase_E_B04_009"
    INDEX 01 00:09:70
  TRACK 10 AUDIO
    TITLE "LR_black_phrase_E_B04_010"
    INDEX 01 00:10:24
  TRACK 11 AUDIO
    TITLE "LR_black_phrase_E_B04_011"
    INDEX 01 00:13:01
  TRACK 12 AUDIO
    TITLE "LR_black_phrase_E_B04_012"
    INDEX 01 00:13:54
  TRACK 13 AUDIO
    TITLE "LR_black_phrase_E_B04_013"
    INDEX 01 00:16:29
  TRACK 14 AUDIO
    TITLE "LR_black_phrase_E_B04_014"
    INDEX 01 00:17:34
  TRACK 15 AUDIO
    TITLE "LR_black_phrase_E_B04_015"
    INDEX 01 00:18:57
  TRACK 16 AUDIO
    TITLE "LR_black_phrase_E_B04_016"
    INDEX 01 00:19:15
  TRACK 17 AUDIO
    TITLE "LR_black_phrase_E_B04_017"
    INDEX 01 00:21:24
  TRACK 18 AUDIO
    TITLE "LR_black_phrase_E_B04_018"
    INDEX 01 00:22:02
  TRACK 19 AUDIO
    TITLE "LR_black_phrase_E_B04_019"
    INDEX 01 00:24:15
  TRACK 20 AUDIO
    TITLE "LR_black_phrase_E_B04_020"
    INDEX 01 00:25:12
  TRACK 21 AUDIO
    TITLE "LR_black_phrase_E_B04_021"
    INDEX 01 00:26:12
  TRACK 22 AUDIO
    TITLE "LR_black_phrase_E_B04_022"
    INDEX 01 00:26:41
  TRACK 23 AUDIO
    TITLE "LR_black_phrase_E_B04_023"
    INDEX 01 00:28:65
  TRACK 24 AUDIO
    TITLE "LR_black_phrase_E_B04_024"
    INDEX 01 00:29:39
  TRACK 25 AUDIO
    TITLE "LR_black_phrase_E_B04_025"
    INDEX 01 00:31:62
  TRACK 26 AUDIO
    TITLE "LR_black_phrase_E_B04_026"
    INDEX 01 00:32:57
  TRACK 27 AUDIO
    TITLE "LR_black_phrase_E_B04_027"
    INDEX 01 00:33:72
  TRACK 28 AUDIO
    TITLE "LR_black_phrase_E_B04_028"
    INDEX 01 00:34:17
  TRACK 29 AUDIO
    TITLE "LR_black_phrase_E_B04_029"
    INDEX 01 00:37:29
  TRACK 30 AUDIO
    TITLE "LR_black_phrase_E_B04_030"
    INDEX 01 00:38:01
  TRACK 31 AUDIO
    TITLE "LR_black_phrase_E_B04_031"
    INDEX 01 00:41:11
  TRACK 32 AUDIO
    TITLE "LR_black_phrase_E_B04_032"
    INDEX 01 00:42:07
  TRACK 33 AUDIO
    TITLE "LR_black_phrase_E_B04_033"
    INDEX 01 00:43:22
  TRACK 34 AUDIO
    TITLE "LR_black_phrase_E_B04_034"
    INDEX 01 00:43:45
  TRACK 35 AUDIO
    TITLE "LR_black_phrase_E_B04_035"
    INDEX 01 00:45:72
  TRACK 36 AUDIO
    TITLE "LR_black_phrase_E_B04_036"
    INDEX 01 00:46:46
  TRACK 37 AUDIO
    TITLE "LR_black_phrase_E_B04_037"
    INDEX 01 00:48:70
  TRACK 38 AUDIO
    TITLE "LR_black_phrase_E_B04_038"
    INDEX 01 00:49:71
  TRACK 39 AUDIO
    TITLE "LR_black_phrase_E_B04_039"
    INDEX 01 00:51:29
  TRACK 40 AUDIO
    TITLE "LR_black_phrase_E_B04_040"
    INDEX 01 00:51:59
  TRACK 41 AUDIO
    TITLE "LR_black_phrase_E_B04_041"
    INDEX 01 00:54:28
  TRACK 42 AUDIO
    TITLE "LR_black_phrase_E_B04_042"
    INDEX 01 00:55:09
  TRACK 43 AUDIO
    TITLE "LR_black_phrase_E_B04_043"
    INDEX 01 00:57:51
  TRACK 44 AUDIO
    TITLE "LR_black_phrase_E_B04_044"
    INDEX 01 00:58:57
  TRACK 45 AUDIO
    TITLE "LR_black_phrase_E_B04_045"
    INDEX 01 00:59:72
  TRACK 46 AUDIO
    TITLE "LR_black_phrase_E_B04_046"
    INDEX 01 01:00:26
  TRACK 47 AUDIO
    TITLE "LR_black_phrase_E_B04_047"
    INDEX 01 01:02:56
  TRACK 48 AUDIO
    TITLE "LR_black_phrase_E_B04_048"
    INDEX 01 01:03:36
  TRACK 49 AUDIO
    TITLE "LR_black_phrase_E_B04_049"
    INDEX 01 01:05:67
  TRACK 50 AUDIO
    TITLE "LR_black_phrase_E_B04_050"
    INDEX 01 01:06:72
  TRACK 51 AUDIO
    TITLE "LR_black_phrase_E_B04_051"
    INDEX 01 01:08:20
  TRACK 52 AUDIO
    TITLE "LR_black_phrase_E_B04_052"
    INDEX 01 01:08:43
  TRACK 53 AUDIO
    TITLE "LR_black_phrase_E_B04_053"
    INDEX 01 01:10:32
  TRACK 54 AUDIO
    TITLE "LR_black_phrase_E_B04_054"
    INDEX 01 01:11:08
  TRACK 55 AUDIO
    TITLE "LR_black_phrase_E_B04_055"
    INDEX 01 01:12:72
  TRACK 56 AUDIO
    TITLE "LR_black_phrase_E_B04_056"
    INDEX 01 01:13:72
  TRACK 57 AUDIO
    TITLE "LR_black_phrase_E_B04_057"
    INDEX 01 01:15:14
  TRACK 58 AUDIO
    TITLE "LR_black_phrase_E_B04_058"
    INDEX 01 01:15:39
  TRACK 59 AUDIO
    TITLE "LR_black_phrase_E_B04_059"
    INDEX 01 01:17:48
  TRACK 60 AUDIO
    TITLE "LR_black_phrase_E_B04_060"
    INDEX 01 01:18:22
  TRACK 61 AUDIO
    TITLE "LR_black_phrase_E_B04_061"
    INDEX 01 01:20:31
  TRACK 62 AUDIO
    TITLE "LR_black_phrase_E_B04_062"
    INDEX 01 01:21:26
  TRACK 63 AUDIO
    TITLE "LR_black_phrase_E_B04_063"
    INDEX 01 01:22:34
  TRACK 64 AUDIO
    TITLE "LR_black_phrase_E_B04_064"
    INDEX 01 01:22:57
  TRACK 65 AUDIO
    TITLE "LR_black_phrase_E_B04_065"
    INDEX 01 01:27:47
  TRACK 66 AUDIO
    TITLE "LR_black_phrase_E_B04_066"
    INDEX 01 01:28:15
  TRACK 67 AUDIO
    TITLE "LR_black_phrase_E_B04_067"
    INDEX 01 01:33:04
  TRACK 68 AUDIO
    TITLE "LR_black_phrase_E_B04_068"
    INDEX 01 01:33:73
  TRACK 69 AUDIO
    TITLE "LR_black_phrase_E_B04_069"
    INDEX 01 01:35:07
  TRACK 70 AUDIO
    TITLE "LR_black_phrase_E_B04_070"
    INDEX 01 01:35:28
  TRACK 71 AUDIO
    TITLE "LR_black_phrase_E_B04_071"
    INDEX 01 01:37:53
  TRACK 72 AUDIO
    TITLE "LR_black_phrase_E_B04_072"
    INDEX 01 01:38:23
  TRACK 73 AUDIO
    TITLE "LR_black_phrase_E_B04_073"
    INDEX 01 01:40:47
  TRACK 74 AUDIO
    TITLE "LR_black_phrase_E_B04_074"
    INDEX 01 01:41:47
  TRACK 75 AUDIO
    TITLE "LR_black_phrase_E_B04_075"
    INDEX 01 01:42:72
  TRACK 76 AUDIO
    TITLE "LR_black_phrase_E_B04_076"
    INDEX 01 01:43:24
  TRACK 77 AUDIO
    TITLE "LR_black_phrase_E_B04_077"
    INDEX 01 01:45:68
  TRACK 78 AUDIO
    TITLE "LR_black_phrase_E_B04_078"
    INDEX 01 01:46:44
  TRACK 79 AUDIO
    TITLE "LR_black_phrase_E_B04_079"
    INDEX 01 01:49:13
  TRACK 80 AUDIO
    TITLE "LR_black_phrase_E_B04_080"
    INDEX 01 01:50:14
  TRACK 81 AUDIO
    TITLE "LR_black_phrase_E_B04_081"
    INDEX 01 01:51:37
  TRACK 82 AUDIO
    TITLE "LR_black_phrase_E_B04_082"
    INDEX 01 01:51:69
  TRACK 83 AUDIO
    TITLE "LR_black_phrase_E_B04_083"
    INDEX 01 01:53:64
  TRACK 84 AUDIO
    TITLE "LR_black_phrase_E_B04_084"
    INDEX 01 01:54:45
  TRACK 85 AUDIO
    TITLE "LR_black_phrase_E_B04_085"
    INDEX 01 01:56:40
  TRACK 86 AUDIO
    TITLE "LR_black_phrase_E_B04_086"
    INDEX 01 01:57:42
  TRACK 87 AUDIO
    TITLE "LR_black_phrase_E_B04_087"
    INDEX 01 01:58:75
  TRACK 88 AUDIO
    TITLE "LR_black_phrase_E_B04_088"
    INDEX 01 01:59:29
  TRACK 89 AUDIO
    TITLE "LR_black_phrase_E_B04_089"
    INDEX 01 02:01:12
  TRACK 90 AUDIO
    TITLE "LR_black_phrase_E_B04_090"
    INDEX 01 02:01:67
  TRACK 91 AUDIO
    TITLE "LR_black_phrase_E_B04_091"
    INDEX 01 02:03:50
  TRACK 92 AUDIO
    TITLE "LR_black_phrase_E_B04_092"
    INDEX 01 02:04:50
  TRACK 93 AUDIO
    TITLE "LR_black_phrase_E_B04_093"
    INDEX 01 02:06:02
  TRACK 94 AUDIO
    TITLE "LR_black_phrase_E_B04_094"
    INDEX 01 02:06:23
  TRACK 95 AUDIO
    TITLE "LR_black_phrase_E_B04_095"
    INDEX 01 02:09:06
  TRACK 96 AUDIO
    TITLE "LR_black_phrase_E_B04_096"
    INDEX 01 02:09:49
  TRACK 97 AUDIO
    TITLE "LR_black_phrase_E_B04_097"
    INDEX 01 02:12:34
  TRACK 98 AUDIO
    TITLE "LR_black_phrase_E_B04_098"
    INDEX 01 02:13:27
  TRACK 99 AUDIO
    TITLE "LR_black_phrase_E_B04_099"
    INDEX 01 02:14:62
  TRACK 100 AUDIO
    TITLE "LR_black_phrase_E_B04_100"
    INDEX 01 02:15:06
  TRACK 101 AUDIO
    TITLE "LR_black_phrase_E_B04_101"
    INDEX 01 02:17:43
  TRACK 102 AUDIO
    TITLE "LR_black_phrase_E_B04_102"
    INDEX 01 02:18:13
  TRACK 103 AUDIO
    TITLE "LR_black_phrase_E_B04_103"
    INDEX 01 02:20:47
  TRACK 104 AUDIO
    TITLE "LR_black_phrase_E_B04_104"
    INDEX 01 02:21:44
  TRACK 105 AUDIO
    TITLE "LR_black_phrase_E_B04_105"
    INDEX 01 02:22:59
  TRACK 106 AUDIO
    TITLE "LR_black_phrase_E_B04_106"
    INDEX 01 02:23:04
  TRACK 107 AUDIO
    TITLE "LR_black_phrase_E_B04_107"
    INDEX 01 02:24:64
  TRACK 108 AUDIO
    TITLE "LR_black_phrase_E_B04_108"
    INDEX 01 02:25:36
  TRACK 109 AUDIO
    TITLE "LR_black_phrase_E_B04_109"
    INDEX 01 02:27:21
  TRACK 110 AUDIO
    TITLE "LR_black_phrase_E_B04_110"
    INDEX 01 02:28:25
  TRACK 111 AUDIO
    TITLE "LR_black_phrase_E_B04_111"
    INDEX 01 02:29:34
  TRACK 112 AUDIO
    TITLE "LR_black_phrase_E_B04_112"
    INDEX 01 02:29:61
  TRACK 113 AUDIO
    TITLE "LR_black_phrase_E_B04_113"
    INDEX 01 02:32:13
  TRACK 114 AUDIO
    TITLE "LR_black_phrase_E_B04_114"
    INDEX 01 02:32:68
  TRACK 115 AUDIO
    TITLE "LR_black_phrase_E_B04_115"
    INDEX 01 02:35:17
  TRACK 116 AUDIO
    TITLE "LR_black_phrase_E_B04_116"
    INDEX 01 02:36:22
  TRACK 117 AUDIO
    TITLE "LR_black_phrase_E_B04_117"
    INDEX 01 02:37:37
  TRACK 118 AUDIO
    TITLE "LR_black_phrase_E_B04_118"
    INDEX 01 02:37:67
  TRACK 119 AUDIO
    TITLE "LR_black_phrase_E_B04_119"
    INDEX 01 02:40:02
  TRACK 120 AUDIO
    TITLE "LR_black_phrase_E_B04_120"
    INDEX 01 02:40:57
  TRACK 121 AUDIO
    TITLE "LR_black_phrase_E_B04_121"
    INDEX 01 02:42:68
  TRACK 122 AUDIO
    TITLE "LR_black_phrase_E_B04_122"
    INDEX 01 02:43:71
  TRACK 123 AUDIO
    TITLE "LR_black_phrase_E_B04_123"
    INDEX 01 02:45:10
  TRACK 124 AUDIO
    TITLE "LR_black_phrase_E_B04_124"
    INDEX 01 02:45:37
  TRACK 125 AUDIO
    TITLE "LR_black_phrase_E_B04_125"
    INDEX 01 02:47:63
  TRACK 126 AUDIO
    TITLE "LR_black_phrase_E_B04_126"
    INDEX 01 02:48:45
  TRACK 127 AUDIO
    TITLE "LR_black_phrase_E_B04_127"
    INDEX 01 02:50:71
  TRACK 128 AUDIO
    TITLE "LR_black_phrase_E_B04_128"
    INDEX 01 02:51:73
  TRACK 129 AUDIO
    TITLE "LR_black_phrase_E_B04_129"
    INDEX 01 02:53:27
  TRACK 130 AUDIO
    TITLE "LR_black_phrase_E_B04_130"
    INDEX 01 02:53:44
  TRACK 131 AUDIO
    TITLE "LR_black_phrase_E_B04_131"
    INDEX 01 02:56:09
  TRACK 132 AUDIO
    TITLE "LR_black_phrase_E_B04_132"
    INDEX 01 02:56:54
  TRACK 133 AUDIO
    TITLE "LR_black_phrase_E_B04_133"
    INDEX 01 02:59:19
  TRACK 134 AUDIO
    TITLE "LR_black_phrase_E_B04_134"
    INDEX 01 03:00:17
  TRACK 135 AUDIO
    TITLE "LR_black_phrase_E_B04_135"
    INDEX 01 03:01:22
  TRACK 136 AUDIO
    TITLE "LR_black_phrase_E_B04_136"
    INDEX 01 03:01:48
  TRACK 137 AUDIO
    TITLE "LR_black_phrase_E_B04_137"
    INDEX 01 03:03:56
  TRACK 138 AUDIO
    TITLE "LR_black_phrase_E_B04_138"
    INDEX 01 03:04:34
  TRACK 139 AUDIO
    TITLE "LR_black_phrase_E_B04_139"
    INDEX 01 03:06:45
  TRACK 140 AUDIO
    TITLE "LR_black_phrase_E_B04_140"
    INDEX 01 03:07:50
  TRACK 141 AUDIO
    TITLE "LR_black_phrase_E_B04_141"
    INDEX 01 03:08:65
  TRACK 142 AUDIO
    TITLE "LR_black_phrase_E_B04_142"
    INDEX 01 03:09:10
  TRACK 143 AUDIO
    TITLE "LR_black_phrase_E_B04_143"
    INDEX 01 03:11:38
  TRACK 144 AUDIO
    TITLE "LR_black_phrase_E_B04_144"
    INDEX 01 03:12:10
  TRACK 145 AUDIO
    TITLE "LR_black_phrase_E_B04_145"
    INDEX 01 03:14:37
  TRACK 146 AUDIO
    TITLE "LR_black_phrase_E_B04_146"
    INDEX 01 03:15:42
  TRACK 147 AUDIO
    TITLE "LR_black_phrase_E_B04_147"
    INDEX 01 03:16:41
  TRACK 148 AUDIO
    TITLE "LR_black_phrase_E_B04_148"
    INDEX 01 03:16:73
  TRACK 149 AUDIO
    TITLE "LR_black_phrase_E_B04_149"
    INDEX 01 03:18:62
  TRACK 150 AUDIO
    TITLE "LR_black_phrase_E_B04_150"
    INDEX 01 03:19:40
  TRACK 151 AUDIO
    TITLE "LR_black_phrase_E_B04_151"
    INDEX 01 03:21:29
  TRACK 152 AUDIO
    TITLE "LR_black_phrase_E_B04_152"
    INDEX 01 03:22:32
  TRACK 153 AUDIO
    TITLE "LR_black_phrase_E_B04_153"
    INDEX 01 03:23:59
  TRACK 154 AUDIO
    TITLE "LR_black_phrase_E_B04_154"
    INDEX 01 03:24:15
  TRACK 155 AUDIO
    TITLE "LR_black_phrase_E_B04_155"
    INDEX 01 03:26:22
  TRACK 156 AUDIO
    TITLE "LR_black_phrase_E_B04_156"
    INDEX 01 03:27:02
  TRACK 157 AUDIO
    TITLE "LR_black_phrase_E_B04_157"
    INDEX 01 03:29:11
  TRACK 158 AUDIO
    TITLE "LR_black_phrase_E_B04_158"
    INDEX 01 03:30:14
  TRACK 159 AUDIO
    TITLE "LR_black_phrase_E_B04_159"
    INDEX 01 03:31:35
  TRACK 160 AUDIO
    TITLE "LR_black_phrase_E_B04_160"
    INDEX 01 03:31:63
  TRACK 161 AUDIO
    TITLE "LR_black_phrase_E_B04_161"
    INDEX 01 03:33:54
  TRACK 162 AUDIO
    TITLE "LR_black_phrase_E_B04_162"
    INDEX 01 03:34:33
  TRACK 163 AUDIO
    TITLE "LR_black_phrase_E_B04_163"
    INDEX 01 03:36:24
  TRACK 164 AUDIO
    TITLE "LR_black_phrase_E_B04_164"
    INDEX 01 03:37:22
  TRACK 165 AUDIO
    TITLE "LR_black_phrase_E_B04_165"
    INDEX 01 03:38:35
  TRACK 166 AUDIO
    TITLE "LR_black_phrase_E_B04_166"
    INDEX 01 03:38:63
  TRACK 167 AUDIO
    TITLE "LR_black_phrase_E_B04_167"
    INDEX 01 03:41:43
  TRACK 168 AUDIO
    TITLE "LR_black_phrase_E_B04_168"
    INDEX 01 03:42:15
  TRACK 169 AUDIO
    TITLE "LR_black_phrase_E_B04_169"
    INDEX 01 03:44:71
  TRACK 170 AUDIO
    TITLE "LR_black_phrase_E_B04_170"
    INDEX 01 03:45:69
  TRACK 171 AUDIO
    TITLE "LR_black_phrase_E_B04_171"
    INDEX 01 03:47:03
  TRACK 172 AUDIO
    TITLE "LR_black_phrase_E_B04_172"
    INDEX 01 03:47:24
  TRACK 173 AUDIO
    TITLE "LR_black_phrase_E_B04_173"
    INDEX 01 03:49:35
  TRACK 174 AUDIO
    TITLE "LR_black_phrase_E_B04_174"
    INDEX 01 03:50:05
  TRACK 175 AUDIO
    TITLE "LR_black_phrase_E_B04_175"
    INDEX 01 03:52:14
  TRACK 176 AUDIO
    TITLE "LR_black_phrase_E_B04_176"
    INDEX 01 03:53:09
  TRACK 177 AUDIO
    TITLE "LR_black_phrase_E_B04_177"
    INDEX 01 03:54:13
  TRACK 178 AUDIO
    TITLE "LR_black_phrase_E_B04_178"
    INDEX 01 03:54:28
  TRACK 179 AUDIO
    TITLE "LR_black_phrase_E_B04_179"
    INDEX 01 03:56:35
  TRACK 180 AUDIO
    TITLE "LR_black_phrase_E_B04_180"
    INDEX 01 03:57:03
  TRACK 181 AUDIO
    TITLE "LR_black_phrase_E_B04_181"
    INDEX 01 03:59:10
